<svg width="593" height="514" viewBox="0 0 593 514" fill="none" xmlns="http://www.w3.org/2000/svg">
<path d="M571.814 0.461426H20.6559C15.4353 0.461426 10.4286 2.5353 6.73707 6.2268C3.04557 9.9183 0.971706 14.9251 0.971706 20.1456V276.04C0.965618 279.784 2.0272 283.452 4.03193 286.613C6.03666 289.775 8.9014 292.299 12.2901 293.89C15.6788 295.481 19.451 296.073 23.1641 295.596C26.8772 295.119 30.3773 293.593 33.2538 291.197L138.761 202.618L289.739 315.409C293.074 317.877 297.104 319.228 301.253 319.269C305.401 319.311 309.457 318.04 312.841 315.639C316.224 313.237 318.762 309.828 320.093 305.899C321.424 301.969 321.478 297.719 320.249 293.756C317.505 284.822 316.047 275.543 315.919 266.198C315.99 245.537 323.281 225.551 336.531 209.698C349.781 193.845 368.155 183.122 388.476 179.385C408.796 175.648 429.783 179.132 447.806 189.234C465.829 199.335 479.754 215.42 487.172 234.703C488.506 238.237 490.83 241.312 493.864 243.561L560.003 293.166C562.928 295.359 566.405 296.695 570.046 297.023C573.687 297.351 577.347 296.659 580.617 295.024C583.886 293.389 586.636 290.876 588.558 287.767C590.48 284.657 591.498 281.074 591.498 277.418V20.1456C591.498 14.9251 589.424 9.9183 585.732 6.2268C582.041 2.5353 577.034 0.461426 571.814 0.461426Z" fill="#FFB74D"/>
<path d="M583.624 261.672L521.816 215.414C510.68 188.88 490.912 166.883 465.715 152.986C440.518 139.089 411.366 134.106 382.983 138.844C354.6 143.582 328.648 157.764 309.331 179.092C290.014 200.42 278.464 227.645 276.55 256.357L150.571 161.873C147.096 159.127 142.796 157.633 138.367 157.633C133.938 157.633 129.638 159.127 126.163 161.873L8.05782 260.294C5.75744 262.208 3.92359 264.62 2.69567 267.349C1.46775 270.078 0.878094 273.051 0.97151 276.041V413.831C0.97151 419.051 3.04538 424.058 6.73688 427.75C10.4284 431.441 15.4351 433.515 20.6557 433.515H571.813C577.034 433.515 582.041 431.441 585.732 427.75C589.424 424.058 591.498 419.051 591.498 413.831V277.419C591.498 274.363 590.786 271.349 589.42 268.616C588.053 265.883 586.069 263.505 583.624 261.672Z" fill="#FFE082"/>
<path d="M555.867 503.984L457.446 366.194C454.936 361.956 454.106 356.932 455.12 352.112C456.134 347.292 458.918 343.027 462.923 340.159C466.927 337.292 471.862 336.03 476.751 336.622C481.641 337.215 486.131 339.619 489.334 343.361L587.755 481.15C589.53 483.223 590.854 485.642 591.645 488.254C592.435 490.865 592.673 493.613 592.345 496.322C592.016 499.031 591.128 501.642 589.737 503.989C588.346 506.336 586.482 508.369 584.263 509.957C582.045 511.546 579.52 512.656 576.85 513.217C574.18 513.778 571.422 513.777 568.751 513.216C566.081 512.654 563.557 511.543 561.339 509.954C559.121 508.365 557.257 506.332 555.867 503.984Z" fill="#FFB74D"/>
<path d="M256.866 157.935C278.609 157.935 296.234 140.309 296.234 118.567C296.234 96.8241 278.609 79.1982 256.866 79.1982C235.123 79.1982 217.498 96.8241 217.498 118.567C217.498 140.309 235.123 157.935 256.866 157.935Z" fill="#FFE082"/>
<path d="M404.498 138.251C370.58 138.303 338.066 151.8 314.083 175.783C290.099 199.767 276.602 232.28 276.55 266.198C276.676 279.562 278.799 292.831 282.849 305.567C290.113 328.029 303.45 348.044 321.384 363.396C339.319 378.749 361.151 388.84 384.465 392.553C407.779 396.266 431.665 393.457 453.482 384.436C475.298 375.414 494.193 360.533 508.075 341.439C521.958 322.344 530.288 299.781 532.141 276.246C533.995 252.711 529.302 229.122 518.58 208.09C507.859 187.057 491.527 169.401 471.392 157.075C451.258 144.749 428.105 138.234 404.498 138.251Z" fill="#039BE5"/>
</svg>
