<svg width="593" height="592" viewBox="0 0 593 592" fill="none" xmlns="http://www.w3.org/2000/svg">
<path d="M382.994 345.52H363.523L356.622 338.865C386.198 304.359 401.479 257.284 393.099 207.25C381.515 138.732 324.334 84.0152 255.323 75.6352C151.066 62.8188 63.3224 150.562 76.1389 254.819C84.5189 323.831 139.235 381.012 207.754 392.596C257.787 400.976 304.863 385.695 339.369 356.118L346.024 363.019V382.491L450.773 487.24C460.879 497.346 477.392 497.346 487.497 487.24C497.603 477.135 497.603 460.622 487.497 450.516L382.994 345.52ZM235.112 345.52C173.741 345.52 124.201 295.979 124.201 234.608C124.201 173.237 173.741 123.697 235.112 123.697C296.483 123.697 346.024 173.237 346.024 234.608C346.024 295.979 296.483 345.52 235.112 345.52Z" fill="black"/>
</svg>
